<svg xmlns="http://www.w3.org/2000/svg" viewBox="0 0 512 512">
  <rect width="512" height="512" rx="115" fill="#16324f"/>
  
  <!-- 影 -->
  <rect x="134" y="100" width="260" height="336" rx="16" fill="#0a1a30" opacity="0.55"/>
  <!-- 帳面本体（重なりページ） -->
  <rect x="122" y="84" width="260" height="336" rx="16" fill="#e9e0c9"/>
  <rect x="118" y="80" width="260" height="336" rx="16" fill="#f5efe0" stroke="#d9cfb4" stroke-width="4"/>
  <!-- 綴じ穴と朱の綴じ紐 -->
  <circle cx="162" cy="118" r="10" fill="#16324f"/>
  <circle cx="210" cy="118" r="10" fill="#16324f"/>
  <path d="M162 118 Q186 58 210 118" fill="none" stroke="#c73e3a" stroke-width="11" stroke-linecap="round"/>
  <path d="M186 88 Q176 108 168 132" fill="none" stroke="#c73e3a" stroke-width="8" stroke-linecap="round" opacity="0.9"/>
  <!-- 題箋（縦書き 株帳） -->
  <rect x="216" y="146" width="72" height="204" rx="7" fill="#ffffff" stroke="#d9cfb4" stroke-width="3"/>
  <text x="252" y="222" text-anchor="middle" font-family="Noto Serif CJK JP,Hiragino Mincho ProN,Yu Mincho,serif" font-weight="900" font-size="62" fill="#22252a">株</text>
  <text x="252" y="316" text-anchor="middle" font-family="Noto Serif CJK JP,Hiragino Mincho ProN,Yu Mincho,serif" font-weight="900" font-size="62" fill="#22252a">帳</text>
  <!-- 上昇チャート＋陽線 -->
  <polyline points="146,394 196,368 238,378 292,338" fill="none" stroke="#c73e3a" stroke-width="12" stroke-linecap="round" stroke-linejoin="round"/>
  <line x1="330" y1="284" x2="330" y2="382" stroke="#c73e3a" stroke-width="10" stroke-linecap="round"/>
  <rect x="314" y="300" width="32" height="62" rx="7" fill="#c73e3a"/>

</svg>